<svg width="37" height="16" viewBox="0 0 37 16" fill="none" xmlns="http://www.w3.org/2000/svg">
<path fill-rule="evenodd" clip-rule="evenodd" d="M27.6538 0.329926C27.7583 0.225344 27.8824 0.142369 28.0191 0.0857549C28.1558 0.0291407 28.3023 0 28.4503 0C28.5982 0 28.7448 0.0291407 28.8814 0.0857549C29.0181 0.142369 29.1423 0.225344 29.2468 0.329926L35.9968 7.06798C36.1015 7.1723 36.1846 7.29623 36.2414 7.43266C36.2981 7.5691 36.3273 7.71536 36.3273 7.86307C36.3273 8.01079 36.2981 8.15705 36.2414 8.29348C36.1846 8.42992 36.1015 8.55385 35.9968 8.65816L29.2468 15.3962C29.0355 15.6071 28.749 15.7256 28.4503 15.7256C28.1515 15.7256 27.865 15.6071 27.6538 15.3962C27.4425 15.1853 27.3238 14.8993 27.3238 14.6011C27.3238 14.3029 27.4425 14.0169 27.6538 13.806L33.6095 7.86307L27.6538 1.92011C27.549 1.81579 27.4659 1.69186 27.4092 1.55543C27.3524 1.41899 27.3232 1.27273 27.3232 1.12502C27.3232 0.977302 27.3524 0.831038 27.4092 0.694604C27.4659 0.558169 27.549 0.434243 27.6538 0.329926Z" fill="#148F2B"/>
<path fill-rule="evenodd" clip-rule="evenodd" d="M-0.000976562 7.86329C-0.000976562 7.56544 0.11755 7.27978 0.328529 7.06917C0.539507 6.85856 0.825655 6.74023 1.12402 6.74023H34.0757C34.3741 6.74023 34.6603 6.85856 34.8712 7.06917C35.0822 7.27978 35.2008 7.56544 35.2008 7.86329C35.2008 8.16114 35.0822 8.44679 34.8712 8.65741C34.6603 8.86802 34.3741 8.98634 34.0757 8.98634L1.12402 8.98634C0.825655 8.98634 0.539507 8.86802 0.328529 8.65741C0.11755 8.44679 -0.000976562 8.16114 -0.000976562 7.86329Z" fill="#148F2B"/>
</svg>
