<svg width="39" height="38" viewBox="0 0 39 38" fill="none" xmlns="http://www.w3.org/2000/svg">
<path fill-rule="evenodd" clip-rule="evenodd" d="M35.9155 5.09135C35.7866 5.13925 31.7987 8.8779 27.0535 13.3993L18.4259 21.6201L14.8233 18.6213C10.9667 15.4112 10.8719 15.3485 10.1497 15.5339C9.19733 15.7784 8.7381 16.7011 9.15355 17.5357C9.30812 17.8462 17.4652 24.709 17.8988 24.8933C18.2413 25.0389 18.7043 25.0352 19.069 24.884C19.2453 24.8108 23.2139 21.0891 28.6212 15.9259C38.651 6.34871 38.0986 6.93061 37.9376 6.11236C37.7774 5.29857 36.7513 4.78038 35.9155 5.09135Z" fill="#1C2C84"/>
<path d="M25.79 1H7C3.68629 1 1 3.68629 1 7V31C1 34.3137 3.68629 37 7 37H32C35.3137 37 38 34.3137 38 31V22.96" stroke="#1C2C84" stroke-width="1.5"/>
</svg>
