<svg width="153" height="35" viewBox="0 0 153 35" fill="none" xmlns="http://www.w3.org/2000/svg">
<path d="M9.02197 0.0531547C6.13739 0.250366 0 0.0531547 0 0.0531547V33.9735H24.8564V25.4934H9.02197V0.0531547Z" fill="#148F2B"/>
<path d="M15.098 19.0479V0.115545C15.098 0.115545 40.1386 -0.144451 44.0051 0.115575C52.6086 0.69416 55.897 8.86596 55.973 16.8785C56.0442 24.3808 54.6842 32.2611 46.3987 33.8387C45.252 34.0571 31.1166 33.8387 31.1166 33.8387V25.5558H41.0592C44.8092 25.5558 47.116 20.8913 46.9511 16.8785C46.7966 13.1218 45.1263 10.1791 41.7957 8.99006C39.0338 8.00409 24.6723 8.39852 24.6723 8.39852V19.0479H15.098Z" fill="#148F2B"/>
<path d="M149.097 20.7433L141.622 0C141.622 0 129.789 0 125.582 0.108082C111.708 0.464506 113.672 8.79382 113.596 16.7472C113.525 24.194 111.725 34.3317 122.632 34.3314C123.794 34.3314 138.489 34.3314 138.489 34.3314V25.3604H128.532C124.776 25.3604 122.632 25.3606 122.631 16.7472C122.631 9.31748 124.319 9.02457 127.794 8.917C128.854 8.88418 130.375 8.91687 132.592 8.917C137.02 8.91726 142.743 8.917 142.743 8.917L147.228 14.8107L149.097 20.7433Z" fill="#148F2B"/>
<path d="M118.452 23.3363V15.3695V7.40272C118.452 7.40272 137.823 0.326635 141.622 1.11112C141.749 1.13725 141.622 0 141.622 0C155.327 0 152.808 14.0756 152.834 16.7472C152.905 24.194 154.081 34.3317 142.698 34.3317C141.535 34.3317 127.393 34.3317 127.393 34.3317V25.3606H137.35C141.106 25.3606 143.251 25.3604 143.251 16.7475C143.251 10.4415 140.689 9.46811 139.132 8.9171C136.366 7.93842 120.94 8.3301 120.94 8.3301L118.452 18.5149V23.3363Z" fill="#148F2B"/>
<path d="M68.6634 0H58.961V33.9585H68.6634V0Z" fill="#148F2B"/>
<path d="M74.6341 34.2148V0.000100514L100.756 5.7001e-08C108.22 -0.000100382 109.397 0.804472 110.085 2.86875C110.832 5.10777 110.459 9.8724 110.459 9.8724H98.8902C98.295 9.75025 84.9478 9.8724 84.9478 9.8724V34.2148H74.6341Z" fill="#148F2B"/>
<path d="M101.129 20.0347C100.756 22.2734 101.876 25.259 99.2634 25.259L100.01 34.1964C109.712 34.5371 111.125 27.8355 111.205 20.0346L101.129 20.0347Z" fill="#148F2B"/>
<path d="M100.01 25.259H82.8439V34.2151H100.01V25.259Z" fill="#148F2B"/>
<path d="M93.2927 14.0639H111.205V21.5273H93.2927V14.0639Z" fill="#148F2B"/>
<path d="M9.02197 0.0531547C6.13739 0.250366 0 0.0531547 0 0.0531547V33.9735H24.8564V25.4934H9.02197V0.0531547Z" fill="#148F2B"/>
<path d="M15.098 19.0479V0.115545C15.098 0.115545 40.1386 -0.144451 44.0051 0.115575C52.6086 0.69416 55.897 8.86596 55.973 16.8785C56.0442 24.3808 54.6842 32.2611 46.3987 33.8387C45.252 34.0571 31.1166 33.8387 31.1166 33.8387V25.5558H41.0592C44.8092 25.5558 47.116 20.8913 46.9511 16.8785C46.7966 13.1218 45.1263 10.1791 41.7957 8.99006C39.0338 8.00409 24.6723 8.39852 24.6723 8.39852V19.0479H15.098Z" fill="#148F2B"/>
<path d="M68.6634 0H58.961V33.9585H68.6634V0Z" fill="#148F2B"/>
<path d="M149.097 20.7433L141.622 0C141.622 0 129.789 0 125.582 0.108082C111.708 0.464506 113.672 8.79382 113.596 16.7472C113.525 24.194 111.725 34.3317 122.632 34.3314C123.794 34.3314 138.489 34.3314 138.489 34.3314V25.3604H128.532C124.776 25.3604 122.632 25.3606 122.631 16.7472C122.631 9.31748 124.319 9.02457 127.794 8.917C128.854 8.88418 130.375 8.91687 132.592 8.917C137.02 8.91726 142.743 8.917 142.743 8.917L147.228 14.8107L149.097 20.7433Z" fill="#148F2B"/>
<path d="M118.452 23.3363V15.3695V7.40272C118.452 7.40272 137.823 0.326635 141.622 1.11112C141.749 1.13725 141.622 0 141.622 0C155.327 0 152.808 14.0756 152.834 16.7472C152.905 24.194 154.081 34.3317 142.698 34.3317C141.535 34.3317 127.393 34.3317 127.393 34.3317V25.3606H137.35C141.106 25.3606 143.251 25.3604 143.251 16.7475C143.251 10.4415 140.689 9.46811 139.132 8.9171C136.366 7.93842 120.94 8.3301 120.94 8.3301L118.452 18.5149V23.3363Z" fill="#148F2B"/>
<path d="M74.6341 34.2148V0.000100514L100.756 5.7001e-08C108.22 -0.000100382 109.397 0.804472 110.085 2.86875C110.832 5.10777 110.459 9.8724 110.459 9.8724H98.8902C98.295 9.75025 84.9478 9.8724 84.9478 9.8724V34.2148H74.6341Z" fill="#148F2B"/>
<path d="M101.129 20.0347C100.756 22.2734 101.876 25.259 99.2634 25.259L100.01 34.1964C109.712 34.5371 111.125 27.8355 111.205 20.0346L101.129 20.0347Z" fill="#148F2B"/>
<path d="M100.01 25.259H82.8439V34.2151H100.01V25.259Z" fill="#148F2B"/>
<path d="M93.2927 14.0639H111.205V21.5273H93.2927V14.0639Z" fill="#148F2B"/>
<rect x="126.878" y="13.4342" width="11.9415" height="7.46341" rx="2" fill="#1C2C84"/>
<rect x="28.9426" y="13.2314" width="11.9415" height="7.46341" rx="2" fill="#1C2C84"/>
</svg>
