<svg width="30" height="30" viewBox="0 0 30 30" fill="none" xmlns="http://www.w3.org/2000/svg">
<path fill-rule="evenodd" clip-rule="evenodd" d="M14.0119 0.0306815C7.25556 0.492695 1.61992 5.42886 0.298622 12.0419C-0.66906 16.8851 0.743016 21.792 4.12875 25.3514C6.53587 27.882 9.62125 29.4345 13.2088 29.9202C13.9946 30.0266 16.0209 30.0266 16.8067 29.9202C19.5359 29.5507 21.9434 28.5765 24.0817 26.9763C24.9398 26.3341 26.3502 24.9211 26.9839 24.0688C28.5953 21.9013 29.5503 19.5409 29.9202 16.8117C30.0269 16.0245 30.0265 13.9989 29.9196 13.2153C29.4472 9.75216 28.0057 6.80758 25.6113 4.41403C24.0896 2.89293 22.2372 1.69442 20.2618 0.952653C18.3364 0.229705 16.0447 -0.108359 14.0119 0.0306815ZM16.1642 0.949442C21.1483 1.37909 25.4708 4.3333 27.6743 8.81606C28.6503 10.8015 29.1054 12.7746 29.104 15.0135C29.102 18.3097 28.0331 21.3238 25.9496 23.9088C22.6963 27.9454 17.3725 29.8655 12.2559 28.8478C10.1034 28.4197 7.77949 27.3363 6.14172 25.9975C1.0018 21.7958 -0.560291 14.7295 2.34308 8.81375C3.74468 5.95786 5.94602 3.75749 8.80795 2.35179C11.1011 1.22547 13.6748 0.734812 16.1642 0.949442ZM16.656 4.08476C16.5137 4.24198 16.5209 4.5636 16.6698 4.69827C16.7359 4.75806 17.0527 4.87726 17.3739 4.96319C18.5438 5.27614 19.8832 5.87649 20.8221 6.50863C22.8348 7.86384 24.1809 9.81767 24.9618 12.5172C25.2156 13.3947 25.4331 13.5827 25.8319 13.2691C25.9915 13.1436 26.0047 13.1026 25.9692 12.8434C25.8956 12.3067 25.3276 10.7454 24.8896 9.87573C23.4688 7.0549 21.1675 5.1741 17.9404 4.19631C17.0866 3.93756 16.8109 3.91367 16.656 4.08476ZM15.7584 7.24481C15.4082 7.52019 15.5887 7.94399 16.1126 8.07635C18.9506 8.79301 20.865 10.6071 21.7281 13.3975C21.8651 13.8403 22.0125 14.1924 22.0887 14.2589C22.2503 14.3998 22.4518 14.4022 22.6469 14.2657C22.7811 14.1717 22.7939 14.1241 22.7628 13.8322C22.6796 13.0505 21.9631 11.3969 21.3021 10.4611C20.5804 9.43921 19.3159 8.39727 18.137 7.85273C17.6478 7.6268 16.5052 7.22689 16.1278 7.14956C15.9816 7.11957 15.8864 7.14411 15.7584 7.24481ZM7.15155 8.20942C6.7554 8.30659 6.54467 8.44479 6.00083 8.96422C5.00032 9.91972 4.43527 10.7729 4.18483 11.7061C4.01554 12.3367 3.98567 13.4063 4.11551 14.1833C4.69971 17.6783 7.7865 21.7733 11.7312 24.2862C12.3242 24.6641 13.8719 25.4254 14.4094 25.6037C16.4634 26.2852 18.2068 26.2282 19.5678 25.4352C20.0997 25.1252 21.57 23.7095 21.7534 23.3306C21.9491 22.9265 21.9822 22.4909 21.8514 22.0405C21.7458 21.6772 21.6814 21.6005 20.3841 20.2945C18.8404 18.7405 18.6525 18.6095 17.9666 18.6106C17.3627 18.6115 17.0245 18.793 16.3569 19.4745C15.7077 20.1374 15.5534 20.2284 15.0788 20.2282C13.3829 20.2277 10.3879 17.379 9.96645 15.3657C9.82305 14.6805 9.88665 14.5228 10.5983 13.7987C11.3147 13.0698 11.4946 12.7415 11.4987 12.1556C11.5033 11.4837 11.3689 11.2874 9.88588 9.79872C8.49192 8.39958 8.29514 8.25521 7.68364 8.18367C7.52463 8.16504 7.28518 8.17667 7.15155 8.20942ZM9.20538 10.4029C10.1034 11.2967 10.5319 11.7692 10.5819 11.9204C10.6926 12.2556 10.5733 12.5476 10.1584 12.9572L9.80172 13.3092L8.08576 11.5939L6.3698 9.87862L6.62518 9.61261C7.00205 9.22008 7.21843 9.10557 7.58367 9.10532L7.90137 9.10506L9.20538 10.4029ZM14.2847 10.3734C14.1245 10.5526 14.1152 10.8367 14.2646 10.9861C14.3152 11.0367 14.6109 11.1573 14.9217 11.2542C16.8731 11.8624 18.198 13.2015 18.7049 15.0777C18.8356 15.5616 19.0067 15.7842 19.248 15.7842C19.4485 15.7842 19.6977 15.5449 19.6977 15.3523C19.6977 15.1419 19.3413 14.104 19.1145 13.6542C18.7888 13.0082 18.5186 12.6195 18.0499 12.1228C17.3203 11.3497 16.4933 10.8363 15.3616 10.4539C14.7099 10.2337 14.4285 10.2126 14.2847 10.3734ZM9.11968 14.2132C8.94827 14.6074 8.97589 15.3176 9.18707 15.9447C9.7802 17.7064 11.6801 19.8067 13.4873 20.6985C14.4515 21.1743 15.2471 21.2747 15.9199 21.0057L16.177 20.9028L17.8875 22.6128C19.5261 24.2507 19.5927 24.3268 19.4712 24.4221C19.2053 24.6309 18.4612 24.9731 18.0758 25.064C17.5039 25.1988 16.386 25.1855 15.7096 25.036C11.6281 24.1336 6.76376 19.5731 5.3371 15.3112C5.10427 14.6156 4.92039 13.6122 4.92367 13.0547C4.92823 12.2672 5.22987 11.2692 5.63546 10.6998L5.77462 10.5045L7.50246 12.2316L9.23031 13.9589L9.11968 14.2132ZM18.3046 19.5801C18.5049 19.6815 20.8445 22.0112 20.9549 22.2192C21.1536 22.5936 21.046 22.8958 20.537 23.393L20.2097 23.7127L18.5065 22.0123L16.8032 20.3118L17.2155 19.9104C17.5878 19.5479 17.6538 19.509 17.896 19.509C18.0436 19.509 18.2274 19.541 18.3046 19.5801Z" fill="white"/>
</svg>
