<svg width="30" height="30" viewBox="0 0 30 30" fill="none" xmlns="http://www.w3.org/2000/svg">
<path fill-rule="evenodd" clip-rule="evenodd" d="M13.755 0.0191807C13.0279 0.0950714 11.9983 0.275438 11.2887 0.451174C6.2123 1.70877 2.02553 5.74581 0.575705 10.7812C0.122211 12.3561 -0.00270787 13.2808 4.42455e-05 15.0421C0.00192374 16.2429 0.0293778 16.6748 0.147182 17.3571C0.726534 20.7113 2.19784 23.5257 4.56727 25.8117C6.39293 27.5731 8.55871 28.8148 10.9539 29.4732C12.4523 29.885 13.2908 29.9952 14.9633 29.9998C16.5868 30.0043 17.2656 29.9252 18.7155 29.5626C22.8822 28.5203 26.5092 25.5917 28.4715 21.6851C29.0736 20.4863 29.6209 18.7308 29.8732 17.1893C30.0405 16.1664 30.0426 13.9362 29.8772 12.8613C28.8567 6.22846 23.7969 1.16036 17.1784 0.141371C16.5294 0.041458 14.3031 -0.0379889 13.755 0.0191807ZM17.3445 1.1209C18.7777 1.36938 19.9675 1.75883 21.2677 2.40507C22.6841 3.10909 23.6362 3.78855 24.8197 4.9402C26.0951 6.18122 26.9007 7.30073 27.68 8.91483C29.2966 12.263 29.5271 15.8949 28.3488 19.4527C26.9566 23.6562 23.6519 26.9625 19.4534 28.3521C16.5141 29.3249 13.502 29.339 10.6002 28.3934C9.69761 28.0993 8.05963 27.3071 7.24393 26.7703C5.70027 25.7543 4.18426 24.2254 3.16115 22.6527C0.309758 18.2697 0.164298 12.4987 2.79136 7.97442C3.44683 6.84552 3.99356 6.14412 5.02775 5.10533C6.06375 4.06474 6.87079 3.43185 7.96224 2.80405C9.59967 1.86216 11.6136 1.20512 13.5235 0.989723C14.4362 0.88679 16.3789 0.953488 17.3445 1.1209ZM10.563 4.59745L10.3988 4.73031L10.3807 9.5339L10.3626 14.3376H9.16054H7.95848L7.81939 14.5144C7.69112 14.6773 7.68024 14.7796 7.68024 15.8197C7.68024 16.5038 7.70958 17.0125 7.75475 17.1117C7.87799 17.382 8.08118 17.4242 9.26083 17.4242H10.3652V18.1958V18.9675H9.19961C8.12199 18.9675 8.02063 18.978 7.85712 19.1066L7.68024 19.2456V20.5157C7.68024 22.1797 7.56002 22.0541 9.15356 22.0541H10.3585L10.3786 23.6622C10.3966 25.0993 10.4115 25.2831 10.5185 25.3901C10.6229 25.4945 10.7945 25.5124 11.8637 25.5306C13.0293 25.5503 13.0979 25.5443 13.271 25.4083L13.453 25.2652V23.6596V22.0541H17.2119C20.8814 22.0541 20.9741 22.0509 21.1052 21.9199C21.23 21.7952 21.2394 21.6963 21.2394 20.5157V19.2456L21.0626 19.1066C20.8885 18.9696 20.8274 18.9675 17.1693 18.9675H13.453V18.2037V17.4399L15.6513 17.4074C17.729 17.3766 17.8847 17.3656 18.4881 17.2062C21.3139 16.4594 23.2385 14.1238 23.3676 11.2845C23.4118 10.3133 23.327 9.7042 23.0243 8.81773C22.6951 7.8533 22.2656 7.17995 21.4742 6.38749C20.5815 5.49351 19.7616 5.02709 18.4364 4.65932C17.9406 4.52169 17.7518 4.51391 14.322 4.48982C10.8195 4.46519 10.7229 4.46801 10.563 4.59745ZM18.4408 5.63516C19.5203 5.96798 20.2455 6.42406 21.0293 7.26288C21.5648 7.83619 22.0859 8.7868 22.2959 9.57342C22.477 10.2521 22.4593 11.7275 22.2617 12.4117C21.7077 14.3309 20.2016 15.7984 18.2812 16.2905C17.7657 16.4226 17.4957 16.4383 15.2481 16.4669L12.7808 16.4984L12.6433 16.673C12.5133 16.8383 12.507 16.9219 12.5264 18.2362C12.5448 19.4907 12.5591 19.6384 12.6747 19.7658C12.8017 19.906 12.8269 19.9069 16.5511 19.9069H20.2997V20.5108V21.1147H16.5817C13.0221 21.1147 12.857 21.1201 12.7053 21.2429C12.5477 21.3703 12.5466 21.3808 12.5266 22.9875L12.5064 24.6039H11.9057H11.305V22.9984V21.3928L11.1281 21.2538C10.9646 21.1252 10.8632 21.1147 9.78561 21.1147H8.61999V20.5108V19.9069H9.82823C10.947 19.9069 11.0464 19.897 11.1707 19.7727C11.2968 19.6467 11.305 19.5491 11.305 18.1727C11.305 16.8456 11.2935 16.6965 11.184 16.5974C11.0834 16.5064 10.8603 16.4849 9.8583 16.4696L8.65355 16.4512L8.63422 15.8684L8.61489 15.2855L9.81884 15.2645C10.891 15.2457 11.0382 15.2294 11.1639 15.1156C11.3048 14.988 11.305 14.9801 11.305 10.1959V5.40406L14.5773 5.42849L17.8496 5.45291L18.4408 5.63516ZM12.7115 6.74419L12.5468 6.87746L12.5284 10.8246C12.5155 13.6019 12.5321 14.825 12.5845 14.9515C12.7196 15.2776 12.8555 15.2927 15.3455 15.2588C17.928 15.2236 18.0513 15.2055 18.9752 14.7261C19.6043 14.3996 20.288 13.7475 20.6538 13.125C21.3876 11.8764 21.4309 10.3049 20.7681 8.98381C20.2722 7.99528 19.3474 7.20424 18.2668 6.84424L17.7154 6.66059L15.2958 6.63576C12.962 6.61181 12.8703 6.61563 12.7115 6.74419ZM17.6229 7.6569C18.2694 7.79392 18.8544 8.11533 19.3247 8.59194C19.9918 9.26798 20.3005 10.014 20.2989 10.9463C20.2964 12.4314 19.354 13.7046 17.9248 14.1537C17.4751 14.2949 17.3299 14.3039 15.4667 14.3039L13.4865 14.304L13.4691 10.9322L13.4518 7.56041L15.3151 7.56155C16.6547 7.56242 17.3033 7.58919 17.6229 7.6569Z" fill="white"/>
</svg>
